REM DIRINDEX 1\2\4,1\2\5,1\2\6,1\3\7,1\3\8,1\3\9,1\3\10
REM DIRNAME cjc057,folder01,folder02,folder03,folder04,folder05,folder06,folder07,folder08,folder09
TITLE ""
FILE "a_129.mp3" MP3
  TRACK 01 AUDIO
    TITLE "0:"
    INDEX 01 00:00:00
  TRACK 02 AUDIO
    TITLE "4:cjc057_02570"
    INDEX 01 00:00:13
  TRACK 03 AUDIO
    TITLE "0:"
    INDEX 01 00:01:32
  TRACK 04 AUDIO
    TITLE "5:cjc057_02571"
    INDEX 01 00:01:64
  TRACK 05 AUDIO
    TITLE "0:"
    INDEX 01 00:03:39
  TRACK 06 AUDIO
    TITLE "4:cjc057_02572"
    INDEX 01 00:04:40
  TRACK 07 AUDIO
    TITLE "0:"
    INDEX 01 00:05:52
  TRACK 08 AUDIO
    TITLE "5:cjc057_02573"
    INDEX 01 00:06:08
  TRACK 09 AUDIO
    TITLE "0:"
    INDEX 01 00:08:48
  TRACK 10 AUDIO
    TITLE "4:cjc057_02574"
    INDEX 01 00:09:55
  TRACK 11 AUDIO
    TITLE "0:"
    INDEX 01 00:11:07
  TRACK 12 AUDIO
    TITLE "5:cjc057_02575"
    INDEX 01 00:11:37
  TRACK 13 AUDIO
    TITLE "0:"
    INDEX 01 00:14:04
  TRACK 14 AUDIO
    TITLE "4:cjc057_02576"
    INDEX 01 00:15:09
  TRACK 15 AUDIO
    TITLE "0:"
    INDEX 01 00:16:12
  TRACK 16 AUDIO
    TITLE "5:cjc057_02577"
    INDEX 01 00:16:44
  TRACK 17 AUDIO
    TITLE "0:"
    INDEX 01 00:17:37
  TRACK 18 AUDIO
    TITLE "4:cjc057_02578"
    INDEX 01 00:18:39
  TRACK 19 AUDIO
    TITLE "0:"
    INDEX 01 00:19:54
  TRACK 20 AUDIO
    TITLE "5:cjc057_02579"
    INDEX 01 00:20:08
  TRACK 21 AUDIO
    TITLE "0:"
    INDEX 01 00:21:37
  TRACK 22 AUDIO
    TITLE "4:cjc057_02580"
    INDEX 01 00:22:42
  TRACK 23 AUDIO
    TITLE "0:"
    INDEX 01 00:23:63
  TRACK 24 AUDIO
    TITLE "5:cjc057_02581"
    INDEX 01 00:24:16
  TRACK 25 AUDIO
    TITLE "0:"
    INDEX 01 00:25:27
  TRACK 26 AUDIO
    TITLE "4:cjc057_02582"
    INDEX 01 00:26:34
  TRACK 27 AUDIO
    TITLE "0:"
    INDEX 01 00:27:49
  TRACK 28 AUDIO
    TITLE "5:cjc057_02583"
    INDEX 01 00:28:06
  TRACK 29 AUDIO
    TITLE "0:"
    INDEX 01 00:30:30
  TRACK 30 AUDIO
    TITLE "4:cjc057_02584"
    INDEX 01 00:31:31
  TRACK 31 AUDIO
    TITLE "0:"
    INDEX 01 00:32:54
  TRACK 32 AUDIO
    TITLE "5:cjc057_02585"
    INDEX 01 00:33:11
  TRACK 33 AUDIO
    TITLE "0:"
    INDEX 01 00:35:23
  TRACK 34 AUDIO
    TITLE "4:cjc057_02586"
    INDEX 01 00:36:27
  TRACK 35 AUDIO
    TITLE "0:"
    INDEX 01 00:37:34
  TRACK 36 AUDIO
    TITLE "5:cjc057_02587"
    INDEX 01 00:37:65
  TRACK 37 AUDIO
    TITLE "0:"
    INDEX 01 00:39:05
  TRACK 38 AUDIO
    TITLE "4:cjc057_02588"
    INDEX 01 00:40:11
  TRACK 39 AUDIO
    TITLE "0:"
    INDEX 01 00:41:36
  TRACK 40 AUDIO
    TITLE "5:cjc057_02589"
    INDEX 01 00:41:67
  TRACK 41 AUDIO
    TITLE "0:"
    INDEX 01 00:43:13
  TRACK 42 AUDIO
    TITLE "4:cjc057_02590"
    INDEX 01 00:44:16
  TRACK 43 AUDIO
    TITLE "0:"
    INDEX 01 00:45:35
  TRACK 44 AUDIO
    TITLE "5:cjc057_02591"
    INDEX 01 00:45:67
  TRACK 45 AUDIO
    TITLE "0:"
    INDEX 01 00:46:72
  TRACK 46 AUDIO
    TITLE "4:cjc057_02592"
    INDEX 01 00:48:04
  TRACK 47 AUDIO
    TITLE "0:"
    INDEX 01 00:49:10
  TRACK 48 AUDIO
    TITLE "5:cjc057_02593"
    INDEX 01 00:49:41
  TRACK 49 AUDIO
    TITLE "0:"
    INDEX 01 00:50:66
  TRACK 50 AUDIO
    TITLE "4:cjc057_02594"
    INDEX 01 00:51:71
  TRACK 51 AUDIO
    TITLE "0:"
    INDEX 01 00:53:08
  TRACK 52 AUDIO
    TITLE "5:cjc057_02595"
    INDEX 01 00:53:39
  TRACK 53 AUDIO
    TITLE "0:"
    INDEX 01 00:54:60
  TRACK 54 AUDIO
    TITLE "4:cjc057_02596"
    INDEX 01 00:55:67
  TRACK 55 AUDIO
    TITLE "0:"
    INDEX 01 00:57:21
  TRACK 56 AUDIO
    TITLE "5:cjc057_02597"
    INDEX 01 00:57:52
  TRACK 57 AUDIO
    TITLE "0:"
    INDEX 01 00:59:24
  TRACK 58 AUDIO
    TITLE "4:cjc057_02598"
    INDEX 01 01:00:33
  TRACK 59 AUDIO
    TITLE "0:"
    INDEX 01 01:01:60
  TRACK 60 AUDIO
    TITLE "5:cjc057_02599"
    INDEX 01 01:02:16
  TRACK 61 AUDIO
    TITLE "0:"
    INDEX 01 01:03:33
  TRACK 62 AUDIO
    TITLE "4:cjc057_02600"
    INDEX 01 01:04:39
  TRACK 63 AUDIO
    TITLE "0:"
    INDEX 01 01:05:71
  TRACK 64 AUDIO
    TITLE "5:cjc057_02601"
    INDEX 01 01:06:26
  TRACK 65 AUDIO
    TITLE "0:"
    INDEX 01 01:07:61
  TRACK 66 AUDIO
    TITLE "4:cjc057_02602"
    INDEX 01 01:08:66
  TRACK 67 AUDIO
    TITLE "0:"
    INDEX 01 01:10:00
  TRACK 68 AUDIO
    TITLE "5:cjc057_02603"
    INDEX 01 01:10:31
  TRACK 69 AUDIO
    TITLE "0:"
    INDEX 01 01:12:09
  TRACK 70 AUDIO
    TITLE "4:cjc057_02604"
    INDEX 01 01:13:16
  TRACK 71 AUDIO
    TITLE "0:"
    INDEX 01 01:14:31
  TRACK 72 AUDIO
    TITLE "5:cjc057_02605"
    INDEX 01 01:14:61
  TRACK 73 AUDIO
    TITLE "0:"
    INDEX 01 01:15:64
  TRACK 74 AUDIO
    TITLE "4:cjc057_02606"
    INDEX 01 01:16:67
  TRACK 75 AUDIO
    TITLE "0:"
    INDEX 01 01:18:09
  TRACK 76 AUDIO
    TITLE "5:cjc057_02607"
    INDEX 01 01:18:41
  TRACK 77 AUDIO
    TITLE "0:"
    INDEX 01 01:20:73
  TRACK 78 AUDIO
    TITLE "4:cjc057_02608"
    INDEX 01 01:22:03
  TRACK 79 AUDIO
    TITLE "0:"
    INDEX 01 01:23:09
  TRACK 80 AUDIO
    TITLE "5:cjc057_02609"
    INDEX 01 01:23:40
  TRACK 81 AUDIO
    TITLE "0:"
    INDEX 01 01:24:55
  TRACK 82 AUDIO
    TITLE "4:cjc057_02610"
    INDEX 01 01:25:60
  TRACK 83 AUDIO
    TITLE "0:"
    INDEX 01 01:26:72
  TRACK 84 AUDIO
    TITLE "5:cjc057_02611"
    INDEX 01 01:27:24
  TRACK 85 AUDIO
    TITLE "0:"
    INDEX 01 01:29:15
  TRACK 86 AUDIO
    TITLE "4:cjc057_02612"
    INDEX 01 01:30:22
  TRACK 87 AUDIO
    TITLE "0:"
    INDEX 01 01:31:43
  TRACK 88 AUDIO
    TITLE "5:cjc057_02613"
    INDEX 01 01:32:00
  TRACK 89 AUDIO
    TITLE "0:"
    INDEX 01 01:34:12
  TRACK 90 AUDIO
    TITLE "4:cjc057_02614"
    INDEX 01 01:35:20
  TRACK 91 AUDIO
    TITLE "0:"
    INDEX 01 01:36:45
  TRACK 92 AUDIO
    TITLE "5:cjc057_02615"
    INDEX 01 01:37:01
  TRACK 93 AUDIO
    TITLE "0:"
    INDEX 01 01:39:31
  TRACK 94 AUDIO
    TITLE "4:cjc057_02616"
    INDEX 01 01:40:36
  TRACK 95 AUDIO
    TITLE "0:"
    INDEX 01 01:41:46
  TRACK 96 AUDIO
    TITLE "5:cjc057_02617"
    INDEX 01 01:42:02
  TRACK 97 AUDIO
    TITLE "0:"
    INDEX 01 01:44:46
  TRACK 98 AUDIO
    TITLE "4:cjc057_02618"
    INDEX 01 01:45:51
  TRACK 99 AUDIO
    TITLE "0:"
    INDEX 01 01:46:66
  TRACK 100 AUDIO
    TITLE "5:cjc057_02619"
    INDEX 01 01:47:19
  TRACK 101 AUDIO
    TITLE "0:"
    INDEX 01 01:48:34
  TRACK 102 AUDIO
    TITLE "4:cjc057_02620"
    INDEX 01 01:49:39
  TRACK 103 AUDIO
    TITLE "0:"
    INDEX 01 01:50:64
  TRACK 104 AUDIO
    TITLE "5:cjc057_02621"
    INDEX 01 01:51:19
  TRACK 105 AUDIO
    TITLE "0:"
    INDEX 01 01:52:30
